<svg width="131" height="98" viewBox="0 0 131 98" fill="none" xmlns="http://www.w3.org/2000/svg">
<path d="M39.3157 0.198377C39.0307 0.304952 36.4989 1.30088 33.6917 2.40705C30.8844 3.51323 25.7972 5.51978 22.3867 6.86115C18.9762 8.2062 16.1642 9.3234 16.1309 9.34913C15.9647 9.47775 15.3139 11.4476 15.4137 11.5247C15.4279 11.5321 15.9932 11.3079 16.6677 11.0213C23.6312 8.07758 31.7964 4.7223 37.0879 2.6349C38.2374 2.18288 39.2349 1.77128 39.3014 1.7235C39.4534 1.60958 39.6814 1.19063 39.8952 0.617327C40.0662 0.150601 40.0709 -7.34329e-05 39.9189 -7.34329e-05C39.8714 -7.34329e-05 39.6007 0.0881262 39.3157 0.198377Z" fill="white"/>
<path d="M66.405 0.27565C61.5125 0.632126 55.4515 1.9 48.9107 3.93595C44.1227 5.42433 37.5345 7.86086 32.6562 9.94825C28.4477 11.7453 24.9137 13.4983 22.5625 14.9536C21.8167 15.4167 21.6077 15.6298 21.2467 16.306C20.444 17.8164 19.7172 20.9953 19.7077 23.0607C19.703 23.8692 19.76 24.086 20.0212 24.2771C20.2065 24.4131 22.0542 25.5927 25.308 27.6581C28.8325 29.8888 32.1242 32.0277 32.1242 32.0791C32.1242 32.0901 31.9342 32.1894 31.7062 32.2996C29.4785 33.3764 26.3245 35.1441 23.978 36.6398C23.3605 37.0367 16.8197 41.3034 14.953 42.5308C13.0292 43.795 10.8585 44.5851 8.46925 44.8938C7.8375 44.9747 6.3365 45.0041 5.871 44.9453C5.4245 44.8902 4.826 44.7505 4.503 44.6219C3.382 44.1846 2.55075 43.3577 2.12325 42.2478C1.96175 41.8289 1.9665 41.8068 2.2325 41.7297C2.5175 41.6451 5.38175 40.6529 6.63575 40.2045C7.7235 39.815 8.284 39.5835 9.158 39.1572C11.9557 37.7937 14.383 36.1437 15.903 34.5781C16.1073 34.3686 16.2878 34.1812 16.3067 34.1665C16.3827 34.0967 17.4087 34.5855 17.7555 34.8574C17.8742 34.9493 17.9788 35.0228 17.9882 35.0228C17.9977 35.0228 18.145 34.8427 18.3207 34.6222C18.7767 34.0452 19.1092 33.483 19.1425 33.2441C19.1663 33.0493 19.1663 33.0456 18.9667 32.8986C18.734 32.7222 18.2542 32.4687 17.841 32.3106C17.6795 32.2445 17.537 32.182 17.5227 32.1636C17.5133 32.1489 17.575 31.9358 17.6652 31.6969C17.917 31.0207 18.069 30.3372 18.0975 29.7308C18.1307 29.1097 18.069 28.7716 17.879 28.4556C17.6558 28.0917 17.328 27.93 16.8055 27.93C16.0835 27.93 15.3045 28.2718 14.3403 29.0068C13.3142 29.7896 12.7537 30.6238 12.6682 31.4948C12.6397 31.7631 12.654 31.8586 12.7395 32.0754C12.9627 32.6414 13.6657 33.1522 14.8675 33.6116L15.3092 33.7806L15.0147 34.0379C14.4542 34.5267 13.3142 35.3168 12.0555 36.0849C10.9155 36.7831 9.71375 37.4336 5.99925 39.3593C4.08025 40.3589 2.375 41.2519 2.2135 41.3475L1.919 41.5239L1.881 41.3511C1.80975 41.0241 1.83825 39.668 1.93325 39.1572C2.10425 38.187 2.45575 36.9999 2.89275 35.9085C3.38675 34.6737 3.71925 33.9791 4.90675 31.6602C5.472 30.5466 5.99925 29.5176 6.0705 29.3706C6.17025 29.1612 6.21775 29.1024 6.2795 29.1207C7.08225 29.3265 7.87075 29.3817 8.42175 29.2751C9.177 29.1318 9.9655 28.7202 10.621 28.1322C11.362 27.4706 12.2407 26.2579 12.8677 25.0268C13.167 24.4314 13.7845 23.0202 13.9317 22.5682C14.041 22.2522 14.041 21.9729 13.9412 21.9471C13.8462 21.9251 13.5707 22.1713 13.0815 22.7226C11.704 24.2771 10.4927 25.1187 9.538 25.1958C8.9775 25.2399 8.31725 25.0525 7.87075 24.7254C7.42425 24.3984 7.15825 23.9794 6.96825 23.2995C6.84 22.8585 6.84 21.2048 6.9635 20.58C7.372 18.5331 8.7115 15.5269 11.1767 11.1353C12.084 9.52195 12.388 8.90088 12.3547 8.73918C12.3357 8.662 12.3215 8.66935 12.1077 8.83105C11.6375 9.20222 10.4642 10.5326 9.405 11.8997C6.35075 15.8319 4.60275 19.5988 4.0185 23.5017C3.89975 24.2991 3.89975 25.8904 4.0185 26.4417C4.19425 27.2428 4.4935 27.8492 4.94475 28.3086L5.19175 28.5585L4.69775 29.3192C2.166 33.2367 0.684 36.5369 0.1995 39.3336C0.076 40.0649 0.0285 41.421 0.1045 42.0641C0.32775 43.9089 1.04025 45.3716 2.394 46.7718C2.8025 47.1907 3.8475 48.0176 4.275 48.2528C5.13475 48.7269 5.966 49.0282 6.92075 49.2009C7.39575 49.2891 7.543 49.2965 8.4075 49.3002C9.3005 49.3002 9.36225 49.3038 9.31 49.3626C9.27675 49.3957 9.006 49.6677 8.702 49.969C4.60275 54.0336 1.36325 59.2116 0.32775 63.3497C0.06175 64.4044 0 64.9152 0 66.003C0 67.0982 0.07125 67.6825 0.32775 68.649C1.04975 71.3538 2.888 73.4008 5.43875 74.3453C6.5265 74.7459 7.45275 74.9002 8.72575 74.8929L9.53325 74.8892L9.519 75.7491C9.46675 79.6777 10.6115 83.0073 12.844 85.3923C14.1787 86.8146 15.8365 87.8913 17.9455 88.6962C20.1067 89.523 22.3772 89.9567 25.3555 90.1147C26.3577 90.1698 28.5332 90.1404 29.6067 90.0559C37.4442 89.4642 47.0107 86.6418 53.5658 82.9852C53.903 82.7978 54.1595 82.6765 54.1405 82.7133C54.036 82.9117 53.6037 83.9628 53.4042 84.5067C52.7155 86.3919 52.4352 87.7884 52.4352 89.3393C52.44 90.405 52.5207 90.9453 52.8105 91.8236C53.6132 94.2491 55.955 96.3916 58.5152 97.0531C59.2657 97.2479 59.6647 97.2957 60.553 97.2957C61.7072 97.2957 62.5052 97.1487 63.593 96.7444C65.0085 96.2189 66.234 95.4177 67.868 93.9514C68.7515 93.1576 69.35 92.6505 70.908 91.3605C72.4422 90.0927 72.979 89.637 73.8245 88.8799C75.886 87.0424 77.7147 85.6239 79.7477 84.3009C83.7805 81.6732 88.4782 79.5123 94.5392 77.4948C95.6887 77.1126 97.1565 76.6532 97.1755 76.6679C97.185 76.6752 97.2705 76.8443 97.3655 77.0464C97.7977 77.9541 98.591 79.0383 99.313 79.7108C99.7452 80.1114 100.477 80.6406 101.004 80.9346C101.536 81.2286 102.614 81.6512 103.208 81.8019C106.305 82.5736 109.825 81.9525 112.774 80.115C115.202 78.6009 116.688 76.5246 117.287 73.8124C117.638 72.2248 117.653 71.0819 117.387 66.4808C116.883 57.9254 116.275 50.3806 114.841 34.8758C113.278 17.9745 113.382 19.1945 113.511 19.1137C113.596 19.0586 113.644 19.0953 114.209 19.6062C115.51 20.7858 116.384 21.3812 116.598 21.2415C116.698 21.1791 116.693 21.0174 116.584 20.7087C116.532 20.5653 116.456 20.286 116.413 20.0839C116.261 19.3489 115.244 16.464 114.579 14.8911C113.948 13.4028 111.986 9.42641 111.449 8.5444C111.022 7.8535 110.879 7.90128 110.333 8.9119C109.435 10.5693 108.794 11.9217 108.599 12.5832C108.476 12.9948 108.461 12.9324 108.827 13.5792C109.15 14.1488 109.369 14.7294 109.502 15.3615C109.53 15.4938 109.573 16.0635 109.597 16.6294C109.696 18.8234 109.891 21.0174 111.425 37.5034C112.138 45.1695 112.242 46.2903 112.518 49.4104C113.121 56.301 113.705 63.7282 114.038 68.8512C114.076 69.4575 114.128 70.2881 114.157 70.6997C114.28 72.6217 114.171 73.5956 113.729 74.5327C113.42 75.1942 112.717 75.8778 111.948 76.2783C110.922 76.8039 109.416 77.2155 107.958 77.3625C107.264 77.4323 105.963 77.4139 105.322 77.3294C104.011 77.1493 103.056 76.8002 102.258 76.2122C101.916 75.9623 101.474 75.536 101.474 75.4588C101.474 75.4404 101.56 75.3596 101.669 75.2824C101.949 75.0693 102.59 74.4482 102.88 74.1064C104.296 72.4233 105.136 70.2624 105.374 67.7119C105.521 66.1243 105.189 64.0002 104.519 62.2729C104.053 61.0749 103.213 59.9283 102.258 59.1859C101.588 58.6641 101.056 58.4325 100.339 58.3517C99.712 58.2819 98.9235 58.4252 98.2585 58.7302C97.4367 59.1087 96.4962 60.1341 96.0877 61.0969C95.4132 62.6661 94.962 65.6502 95.0285 68.0978C95.0665 69.5898 95.3087 70.7217 95.8882 72.0778L96.0877 72.5556L95.9452 72.5997C90.8438 74.2497 86.1222 76.1644 82.4268 78.0754C79.3725 79.6557 76.9548 81.1881 74.3945 83.1653C72.4137 84.6978 71.364 85.6349 68.172 88.7256C66.4572 90.383 65.873 90.8938 65.0655 91.4304C63.1132 92.7276 61.2797 93.3928 59.2562 93.5361C58.197 93.6096 57.4275 93.5141 56.6105 93.198C56.012 92.9702 55.5465 92.6688 55.1427 92.2536C54.2497 91.3348 53.8697 90.2066 53.941 88.6962C54.0217 87.0571 54.5347 85.2527 55.689 82.5479L56.164 81.4344L57.3895 80.4899C59.5032 78.8545 60.4485 77.8071 61.0422 76.4217C61.6787 74.9443 61.8117 73.1215 61.427 71.0562C61.085 69.2076 60.5245 67.5649 58.938 63.7613C57.9025 61.2807 57.4655 60.1671 57.5082 60.1304C57.5462 60.1047 58.1685 60.3729 58.444 60.5383C58.5912 60.6228 58.995 60.8838 59.3417 61.1153C59.6837 61.3468 60.078 61.593 60.211 61.6592C60.4342 61.7694 60.4865 61.7805 60.7525 61.7694C61.142 61.7511 61.3082 61.6629 61.3272 61.4607C61.3415 61.2954 61.2892 61.2255 60.7572 60.6486C60.1967 60.0348 59.6362 59.3366 58.558 57.918C56.6912 55.4484 56.2115 54.9303 55.309 54.4011C54.891 54.1585 54.7912 54.1328 54.663 54.2283C54.5252 54.3386 54.4587 54.4819 54.283 55.0883C54.0265 55.9629 53.713 56.7935 53.162 58.0467C52.5445 59.4542 52.5445 59.4579 53.2617 60.0312C53.9457 60.5787 54.1025 60.8286 54.644 62.2619C54.9812 63.1623 55.4325 64.2243 56.487 66.6278C56.8005 67.3444 57.1757 68.2485 57.3182 68.6343C58.0545 70.6299 58.387 72.3645 58.3965 74.2534C58.3965 75.1354 58.3395 75.3633 57.9405 75.9807C56.3682 78.4282 50.521 81.122 42.1515 83.2535C37.8148 84.3597 33.649 85.0836 29.7017 85.4144C28.823 85.4879 25.9872 85.4769 25.1655 85.396C23.2845 85.2086 21.774 84.8742 20.3205 84.3229C18.316 83.5622 16.6725 82.4303 15.3805 80.9235C13.9935 79.3065 13.0435 77.2008 12.6065 74.7789C12.5495 74.4776 12.5067 74.213 12.5067 74.1909C12.5067 74.1652 12.6207 74.0954 12.7585 74.0366C13.6657 73.6434 14.136 73.342 15.6892 72.1587C16.435 71.589 17.6842 70.6629 18.468 70.1007C19.2517 69.5347 20.6435 68.502 21.5555 67.8038C22.4722 67.1055 23.4745 66.3595 23.788 66.1464C26.1155 64.5771 28.443 63.3901 31.3405 62.2913C33.2832 61.5563 34.2 61.2623 39.653 59.6269C42.598 58.7449 44.1465 58.2341 45.068 57.8372C48.5117 56.3598 50.8298 54.074 51.6752 51.3141C51.9602 50.3843 52.1075 49.2303 52.0552 48.3263C51.9745 46.86 51.623 45.7648 50.711 44.1552C50.2882 43.4128 50.1838 43.1592 50.2645 43.0968C50.312 43.0637 50.5495 43.2327 51.4472 43.9347C53.3045 45.39 53.9885 46.0698 56.1782 48.6387C56.696 49.245 57.304 49.9396 57.5272 50.1822C58.596 51.3435 59.812 52.3798 60.8617 53.0303C62.0492 53.7653 63.5027 54.379 64.8897 54.7318C65.3125 54.8421 65.6687 54.9376 65.6782 54.945C65.74 54.9891 66.253 60.7992 66.443 63.5592C66.9323 70.674 66.9417 76.8333 66.4668 81.7872C66.405 82.4119 66.405 83.0403 66.4668 83.1322C66.4952 83.169 66.5475 83.202 66.5807 83.202C66.9702 83.202 68.2385 80.8206 68.856 78.9207C69.7775 76.0983 70.053 73.636 69.8677 69.8067C69.6777 65.8377 69.2122 57.749 69.0508 55.6212L69.0222 55.2132L69.749 55.1691C70.6325 55.1103 71.6537 54.9817 72.5515 54.809C78.4082 53.6991 81.2487 50.9943 81.9992 45.8273C82.1655 44.666 82.2082 43.9714 82.2035 42.2809C82.2035 38.5214 81.8615 35.3131 80.693 28.077C79.4627 20.4551 79.135 17.8495 78.9592 14.3876C78.888 12.9434 78.8975 11.8629 78.983 11.7747C79.0638 11.6939 79.0163 11.6571 79.9377 12.4767C80.655 13.1161 81.4767 13.7335 81.7712 13.8511C81.9565 13.9283 82.004 13.9356 82.0658 13.8952C82.1655 13.8291 82.1607 13.6343 82.0515 13.3219C82.004 13.1786 81.928 12.8993 81.8805 12.6972C81.7617 12.1312 81.0682 10.1063 80.4745 8.57381C79.9282 7.15525 79.401 6.01968 77.995 3.21565C77.102 1.43328 76.7647 0.852631 76.551 0.746056C76.4465 0.694603 76.4323 0.694603 76.342 0.75708C76.1995 0.8563 76.0997 1.01801 75.4205 2.26015C74.3612 4.19321 73.8387 5.28101 73.758 5.69628C73.7342 5.84328 73.7533 5.90208 73.9385 6.21078C74.2188 6.67383 74.5132 7.35371 74.632 7.8094C74.7745 8.35698 74.8267 8.85678 74.8267 9.66161C74.8267 11.6241 74.9977 14.5457 75.2542 17.1255C75.5487 20.0288 75.9002 22.5903 76.8692 28.9407C77.9855 36.2319 78.3655 39.4622 78.584 43.4018C78.6505 44.6844 78.6172 46.4851 78.5175 46.9665C78.0425 49.1752 76.4797 50.0205 72.143 50.4063C71.2975 50.4835 68.8322 50.5019 68.7467 50.4357C68.7135 50.41 68.666 50.0352 68.6232 49.517C68.0437 42.009 67.7492 38.8889 67.1792 34.2327C66.1485 25.8426 65.3077 17.0153 65.4977 16.6331C65.512 16.6 65.5547 16.5743 65.5928 16.5743C65.7162 16.5743 66.6567 17.5261 67.7967 18.816C69.1077 20.2971 69.3643 20.4955 69.3025 19.9737C69.2407 19.4886 68.9605 18.7719 67.906 16.4089C67.2362 14.9132 66.3148 12.9434 65.7827 11.8556C65.5832 11.455 65.4217 11.1059 65.4217 11.0802C65.4217 11.0544 65.9157 10.5583 66.5238 9.97398C67.8395 8.7061 68.2527 8.27613 68.856 7.57053C69.6683 6.61503 70.1717 5.87635 70.6182 5.00538C71.1312 4.00211 71.345 3.13848 71.2975 2.24178C71.2357 1.06578 70.8177 0.554955 69.7157 0.312401C69.331 0.224205 67.393 0.205826 66.405 0.27565ZM67.1792 4.5019C68.2243 4.62318 68.6517 4.85103 68.6517 5.28468C68.6517 5.43903 68.6042 5.52355 68.267 5.97558C67.5545 6.92373 66.4572 8.16588 65.3125 9.32718L64.7947 9.85271L64.2865 8.86781C63.6927 7.72855 63.5217 7.44926 63.3507 7.36473C63.1417 7.25448 63.0277 7.36473 62.567 8.12545C62.3437 8.49663 61.8592 9.2794 61.4935 9.8674C60.7715 11.0177 60.5957 11.3337 60.5197 11.6277C60.4675 11.8115 60.4722 11.8372 60.6385 12.1312C60.819 12.4546 61.0042 12.925 61.104 13.2962L61.161 13.513L60.7097 14.0055C58.8002 16.0818 57.7647 17.6731 57.3277 19.1872C57.1995 19.6356 57.0902 20.2089 57.1187 20.3007C57.1235 20.3338 57.4607 19.959 57.8645 19.4665C58.8905 18.2243 61.351 15.3579 61.3795 15.3799C61.389 15.3909 61.4175 15.6739 61.4365 16.0157C61.4602 16.3538 61.6692 18.1178 61.902 19.9369C62.8092 26.9378 63.2177 30.5724 63.8305 37.0624C64.1107 40.0134 64.1488 40.3846 64.6902 45.4524C64.942 47.8008 65.1367 49.7338 65.1225 49.7448C65.0845 49.7742 64.277 49.4729 63.7355 49.2267C62.947 48.8702 62.1727 48.3888 61.3367 47.7383C59.7407 46.5035 58.6102 45.4194 56.848 43.4385C53.7082 39.9179 52.5825 38.8374 49.951 36.8199C48.5165 35.7174 47.405 34.9419 45.638 33.8064L44.9255 33.3507L45.3767 33.3396C46.037 33.3213 47.7565 33.3984 48.6305 33.483C51.0245 33.7182 52.9197 34.1922 54.8767 35.0448C55.1237 35.1514 55.4705 35.269 55.6462 35.3058C55.9455 35.3646 55.974 35.3646 56.1307 35.3058C56.3445 35.2286 56.316 35.3058 56.943 33.064C57.4892 31.1089 57.5177 30.9178 57.3467 30.565C57.2422 30.3482 56.9572 30.102 56.658 29.9697C56.5535 29.9219 56.1687 29.7969 55.803 29.694C53.6322 29.0693 51.2287 28.0403 50.1932 27.2943C48.5355 26.0962 47.614 24.3837 47.0915 21.5172C46.9205 20.5764 46.5927 18.2685 46.6307 18.2391C46.645 18.228 46.8207 18.3015 47.025 18.4008C48.1412 18.9483 49.1435 19.2938 49.6137 19.2938C49.8465 19.2938 50.0602 19.2093 50.1077 19.1027C50.2122 18.8454 50.0792 18.4265 49.7087 17.8532C49.4 17.3754 44.4505 11.0655 44.1892 10.8156C44.0705 10.7016 43.9137 10.573 43.8425 10.5326C43.719 10.4628 43.7 10.4628 43.5812 10.5105C43.3295 10.6208 43.0635 11.0214 42.0375 12.8515C41.4722 13.8658 40.9972 14.7184 40.9782 14.7478C40.964 14.7772 41.078 14.9499 41.2442 15.1447C41.9947 16.0267 42.0185 16.1002 42.4317 19.257C42.5647 20.2566 42.7025 21.282 42.7452 21.5355C43.1537 24.1742 43.6477 26.1146 44.2842 27.5809C44.3887 27.8198 44.4742 28.0329 44.4742 28.0476C44.4742 28.0623 44.346 28.077 44.194 28.077C43.2297 28.077 41.2727 28.5217 39.254 29.1979L38.57 29.4258L37.734 28.926C33.0173 26.0925 27.5025 22.9541 22.9615 20.5249C22.1682 20.1023 21.489 19.7164 21.451 19.6723C21.3085 19.5069 21.3892 19.4445 22.4912 18.8454C27.6972 16.0304 34.713 12.9985 42.8735 10.0365C51.7132 6.82818 59.2942 4.90248 64.8042 4.4725C65.284 4.43208 66.766 4.45045 67.1792 4.5019ZM16.1595 29.9403C16.5442 30.1644 16.6868 30.8921 16.4872 31.5977C16.4207 31.8292 16.4683 31.8329 15.6655 31.5315C14.7582 31.1934 14.3117 30.8921 14.3117 30.6201C14.3117 30.4107 14.744 30.124 15.3472 29.9256C15.6655 29.8227 15.9647 29.83 16.1595 29.9403ZM37.9525 36.1694C44.2747 40.8881 48.279 45.0886 50.0982 48.9143L50.3643 49.4729L50.1838 49.7742C49.8892 50.2557 49.5378 50.6268 48.9202 51.1046C47.6425 52.0932 45.8137 52.9531 43.0112 53.8792C41.306 54.4452 40.0425 54.8053 36.2092 55.8233C32.6278 56.7714 31.8772 56.9993 30.248 57.624C25.897 59.2925 22.5292 61.4203 17.3945 65.7458C17.0952 65.9994 16.1642 66.7932 15.333 67.5098C13.8462 68.7924 13.4615 69.0827 12.7442 69.4575C12.5827 69.5421 12.4402 69.6045 12.4307 69.5935C12.369 69.5494 12.6302 67.7303 12.844 66.7013C13.148 65.2239 13.7417 63.2872 14.269 62.0414C14.3497 61.854 14.4067 61.6923 14.3925 61.6812C14.3545 61.6518 13.7607 62.442 13.3475 63.0888C12.1125 64.9924 11.058 67.4216 10.393 69.8765C10.3027 70.1999 10.2077 70.4755 10.1697 70.4902C10.0415 70.5527 9.139 70.7585 8.6165 70.843C7.8565 70.968 6.63575 70.9974 6.023 70.9128C4.0755 70.6335 2.8215 69.7111 2.223 68.1162C1.96175 67.4106 1.89525 66.9622 1.89525 65.8377C1.89525 65.0696 1.91425 64.6911 1.976 64.3419C2.3845 62.012 3.35825 59.7592 5.206 56.9074C6.1655 55.4154 6.7735 54.5738 8.873 51.7992C9.63775 50.7885 10.4215 49.7485 10.6115 49.4876L10.963 49.0135L11.4618 48.8775C12.6872 48.5431 13.946 48.0176 15.333 47.2679C15.6227 47.1099 17.6415 45.8677 19.8217 44.5006C25.6167 40.8771 27.303 39.8334 28.2055 39.3078C30.2337 38.1208 32.3522 37.0257 34.2142 36.1988C34.8365 35.9232 36.5798 35.2102 36.6367 35.2065C36.651 35.2065 37.2447 35.6402 37.9525 36.1694ZM99.8165 63.3056C100.42 63.4416 101.047 63.7797 101.555 64.2427C102.486 65.088 103.346 66.5139 103.683 67.7597C103.787 68.1529 103.854 68.6748 103.821 68.8218C103.692 69.3436 102.049 70.3028 99.5457 71.3171C99.18 71.4678 98.8522 71.589 98.819 71.589C98.7477 71.589 98.3298 70.9092 97.9877 70.233C97.1042 68.5057 96.634 66.6903 96.7717 65.5694C96.8762 64.7241 97.0947 64.3162 97.717 63.8311C98.2727 63.3975 98.6527 63.2541 99.2465 63.2505C99.4175 63.2468 99.674 63.2725 99.8165 63.3056Z" fill="white"/>
<path d="M35.3829 14.6633C34.9079 15.2219 34.2334 16.3722 33.8581 17.2542C33.4259 18.2648 33.2359 19.0623 33.1884 20.0472C33.1171 21.4988 33.5731 22.2375 34.5801 22.3C35.4494 22.3514 36.0669 21.7892 36.5419 20.5066C36.6986 20.084 36.8554 19.4519 36.8126 19.4188C36.7556 19.3747 36.6511 19.4739 36.4279 19.7826C36.1286 20.1942 35.8199 20.4882 35.5539 20.6205C35.3591 20.7161 35.2974 20.7308 35.1026 20.7124C34.6609 20.6756 34.4091 20.4735 34.2334 20.0105C34.1004 19.676 34.1146 18.8198 34.2571 18.2648C34.4614 17.4637 34.6941 16.7912 35.2356 15.4535C35.4066 15.0272 35.5396 14.6413 35.5349 14.5898C35.5206 14.5053 35.5111 14.509 35.3829 14.6633Z" fill="white"/>
<path d="M33.6299 45.0701C33.5587 45.1216 33.0647 45.8419 32.5042 46.7055C31.9579 47.5581 31.4972 48.2527 31.4877 48.2527C31.4734 48.2527 31.3642 48.1829 31.2359 48.0983C30.3572 47.5067 27.0892 45.8309 26.0109 45.4156C25.5834 45.2502 25.4504 45.2502 25.2699 45.4009C25.1322 45.5148 22.5767 49.4324 22.5767 49.5279C22.5767 49.6271 22.6052 49.6418 23.6929 50.1637C24.8662 50.726 26.4859 51.5675 27.6877 52.2327C28.6899 52.7876 28.7849 52.8134 28.9987 52.6333C29.2742 52.4054 30.1054 51.2552 30.7942 50.1527L31.2264 49.4654L31.4259 49.5647C32.6894 50.1784 35.1357 51.4389 36.1474 51.9975C36.9739 52.4532 37.0119 52.4642 37.1877 52.4018C37.3492 52.3393 37.5107 52.1592 38.2897 51.1559C39.2634 49.9064 39.9142 48.8113 39.9902 48.3041L40.0234 48.1094L39.7859 47.933C39.4202 47.6537 38.6839 47.2421 37.2304 46.4924C35.2212 45.456 34.1714 44.9819 33.8769 44.9819C33.8104 44.9819 33.6964 45.0224 33.6299 45.0701Z" fill="white"/>
<path d="M18.9431 52.0857C18.2924 52.2511 17.7224 52.7545 17.1191 53.6843C16.8056 54.1694 16.6821 54.4708 16.1929 55.9885C15.8936 56.9183 15.6419 57.8187 15.4946 58.4471C15.3901 58.9028 15.2761 59.1931 15.2144 59.1417C15.1954 59.127 15.1336 58.9065 15.0766 58.6529C14.4354 55.8379 12.8679 53.7174 11.0296 53.1845C10.6829 53.0853 10.0986 53.0228 9.97985 53.0706C9.84685 53.1257 9.50485 53.4969 9.0726 54.0592C8.56435 54.7207 8.40285 54.9926 8.44085 55.1543C8.47885 55.3454 8.71635 55.6027 9.17235 55.9408C9.6236 56.2752 10.0179 56.4957 10.3266 56.5765C10.6971 56.6794 11.1104 56.628 11.2244 56.47C11.2909 56.3671 11.4619 56.3009 11.6376 56.3009C12.0319 56.3009 12.7586 57.374 13.7086 59.3512C14.2501 60.4757 14.4354 61.0012 14.5019 61.5966C14.5541 62.067 14.6111 62.1809 14.7916 62.1809C15.0671 62.1809 15.5516 61.5892 15.8556 60.8763C16.0551 60.4096 16.2879 59.6305 16.5444 58.5904C17.0811 56.4185 17.6416 55.0624 18.2069 54.5626C18.4396 54.3605 18.6106 54.3017 18.9241 54.3238C19.2376 54.3495 19.4561 54.4708 19.9311 54.8824C20.4394 55.3307 20.5011 55.3638 20.6816 55.305C20.7624 55.2829 20.8811 55.1984 20.9429 55.1249C21.1044 54.9375 21.3371 54.3899 21.3989 54.0592C21.4464 53.8203 21.4416 53.7541 21.3656 53.5704C21.1709 53.0926 20.4536 52.376 19.9596 52.1702C19.6699 52.0453 19.2376 52.0122 18.9431 52.0857Z" fill="white"/>
<path d="M90.5541 1.80447C90.3831 1.94779 89.5233 3.53539 89.1006 4.49089C88.8536 5.04214 88.7253 5.41699 88.6493 5.78082C88.6066 6.00132 88.6113 6.04174 88.6921 6.16669C88.8488 6.40557 89.1101 7.03032 89.2383 7.46397C89.4331 8.14384 89.5043 8.69877 89.5518 9.90417C89.6183 11.5138 89.7941 13.8695 90.2168 18.7977C90.5493 22.6417 91.5183 33.3837 91.6418 34.6149C91.6703 34.8648 91.6893 35.1404 91.6893 35.2286V35.3829L88.8773 36.8456C87.3288 37.6467 85.6996 38.4957 85.2531 38.7309C84.4503 39.1572 83.8518 39.543 83.8518 39.6386C83.8518 39.7268 84.1606 39.6974 84.5786 39.5761C85.4098 39.3262 90.7678 37.4483 91.4423 37.1653C91.6608 37.0734 91.8461 37.0073 91.8508 37.0146C91.8888 37.0514 92.7723 47.3634 92.9956 50.3475C93.1998 53.1075 93.2236 53.769 93.1666 55.125C93.1048 56.5215 93.0621 57.0728 92.9148 58.1202C92.7866 59.0426 92.7676 60.0532 92.8816 60.1414C93.0431 60.27 93.2188 60.0936 93.6796 59.3513C94.5488 57.9364 95.2851 56.0695 95.7506 54.1218C96.1971 52.2328 96.4156 49.8257 96.3016 47.9625C96.2066 46.3087 95.9026 42.6962 95.4513 37.768L95.2281 35.3168L96.0356 34.839C96.4868 34.5781 97.1898 34.1445 97.6078 33.8762C98.4581 33.3286 100.116 32.0681 100.71 31.5132C101.09 31.1604 101.911 30.3298 101.992 30.2159C102.025 30.1681 102.087 30.1828 102.358 30.3004C102.947 30.554 103.479 30.8406 103.783 31.0722L104.077 31.2963L104.434 30.8517C105.094 30.0321 105.455 29.4331 105.536 29.0325L105.569 28.8672L105.265 28.6393C104.937 28.3968 104.538 28.1873 103.883 27.9153C103.569 27.783 103.474 27.7242 103.488 27.6765C103.997 26.3976 104.229 25.3906 104.229 24.4755C104.229 23.4318 103.911 22.8255 103.237 22.5903C102.947 22.4874 102.325 22.4837 101.949 22.5792C101.208 22.7703 100.425 23.193 99.5458 23.8692C98.8333 24.4204 98.4201 24.8467 98.0543 25.4127C97.6648 26.0227 97.5223 26.449 97.5128 27.048C97.5128 27.4339 97.5271 27.5405 97.6126 27.7169C97.9308 28.371 98.8238 28.9958 100.201 29.525C100.662 29.7051 100.752 29.7492 100.719 29.8006C100.634 29.9182 98.8761 31.2302 98.2206 31.6638C97.0711 32.4209 95.1331 33.5822 95.0808 33.5418C95.0618 33.5271 93.8126 20.4514 93.1571 13.3991C92.9623 11.2713 92.9528 10.9993 93.0906 10.9626C93.1191 10.9552 93.4041 11.1757 93.7271 11.4513C94.6248 12.2157 95.3611 12.6788 95.6746 12.6788C95.9168 12.6788 95.9786 12.3591 95.8408 11.8409C95.6556 11.1537 95.1901 10.1136 93.6606 6.98254C91.8603 3.30019 91.2286 2.08377 90.9958 1.84857C90.8581 1.70524 90.6918 1.69054 90.5541 1.80447ZM101.712 24.9606C102.12 25.1223 102.325 25.556 102.329 26.2653C102.329 26.6438 102.225 27.1803 102.139 27.2465C102.044 27.32 100.591 26.7651 100.064 26.449C99.7501 26.2616 99.5268 26.0117 99.5268 25.8537C99.5268 25.7875 99.5743 25.6809 99.6361 25.6111C99.9021 25.3024 100.876 24.8835 101.332 24.8798C101.427 24.8798 101.598 24.9165 101.712 24.9606Z" fill="white"/>
<path d="M104.913 2.62392C104.671 2.70477 104.453 2.951 104.049 3.57575C103.066 5.10822 102.396 6.65172 101.954 8.41572C101.655 9.60642 101.717 10.3267 102.158 10.7714C102.671 11.2932 103.954 11.341 105.075 10.878C105.73 10.6097 106.419 10.0364 106.6 9.62112C106.794 9.16175 106.984 8.20257 106.984 7.68072C106.98 6.83915 106.215 5.891 104.871 5.07515C104.662 4.94652 104.486 4.83627 104.476 4.8326C104.443 4.80687 105.023 3.62352 105.341 3.07227C105.488 2.8187 105.498 2.7158 105.379 2.63495C105.274 2.56145 105.113 2.55777 104.913 2.62392ZM104.196 6.94205C105.293 7.4492 106.072 7.9637 106.167 8.243C106.215 8.38265 106.144 8.4635 105.773 8.6987C104.928 9.23157 103.569 9.57702 103.094 9.38225C103.004 9.3455 102.885 9.26832 102.833 9.2132C102.629 9.00005 102.7 8.29077 102.994 7.61457C103.142 7.2728 103.493 6.65172 103.541 6.65172C103.555 6.65172 103.849 6.78402 104.196 6.94205Z" fill="white"/>
<path d="M124.574 15.0749C124.255 15.3469 122.978 17.8238 122.636 18.8381C122.436 19.4372 122.431 19.5621 122.626 19.9406C123.054 20.7675 123.182 21.4327 123.514 24.4756C123.761 26.7026 123.956 28.3858 124.654 34.2327C125.467 41.0278 125.747 43.4864 126.079 46.7645C127.31 58.9214 127.49 67.8112 126.668 75.797C126.535 77.0942 126.531 77.7227 126.654 77.8182C126.801 77.9321 127.001 77.7374 127.409 77.0869C128.977 74.5842 129.946 71.4972 130.316 67.8406C130.397 67.0468 130.397 60.2958 130.316 58.2121C130.003 50.1197 129.409 42.9572 128.331 34.2143C128.017 31.6749 127.272 26.2139 127.053 24.8431L127.025 24.6777L127.172 24.8063C127.329 24.9423 127.96 25.5413 129.157 26.6806C129.851 27.3421 130.492 27.908 130.525 27.8823C130.544 27.8676 130.217 26.7284 129.998 26.0558C129.271 23.8178 128.108 21.0909 126.55 17.9598C125.671 16.1958 125.129 15.1889 125.006 15.086C124.868 14.972 124.702 14.9684 124.574 15.0749Z" fill="white"/>
<path d="M86.07 17.8311C85.88 18.0222 85.5618 18.4669 85.1818 19.0549C83.847 21.1496 83.182 23.0496 83.106 24.9716C83.03 26.9598 83.657 27.9006 85.063 27.908C85.3765 27.908 85.4905 27.8933 85.7138 27.8124C86.203 27.636 86.659 27.2244 86.9963 26.6548C87.438 25.8977 88.008 24.108 87.8038 24.108C87.7325 24.108 87.6328 24.2219 87.3715 24.5858C86.9155 25.2105 86.4215 25.6662 86.0605 25.7838C85.614 25.9271 85.0488 25.7801 84.759 25.442C84.3458 24.9606 84.2223 23.95 84.4455 22.8953C84.6403 21.9765 85.082 20.6682 85.747 19.0512C86.2648 17.7833 86.3218 17.5775 86.07 17.8311Z" fill="white"/>
<path d="M69.5164 30.3444C68.7849 31.3219 68.6329 31.5535 68.6329 31.6894C68.6281 31.8217 68.6709 31.8585 69.4594 32.4465C70.6469 33.3322 71.3119 33.9275 72.0291 34.7617C73.3164 36.2575 73.8389 37.6981 73.6916 39.3408C73.6631 39.6752 73.5966 40.1162 73.5444 40.3183C73.3829 40.9541 73.4351 41.1893 73.7106 41.0938C73.8626 41.0386 74.0146 40.8475 74.2236 40.4433C74.8886 39.1497 75.0406 37.5768 74.6606 35.8495C74.3424 34.3979 73.5824 33.0712 72.4139 31.9173C71.7631 31.2778 70.0816 30.0982 69.8109 30.0982C69.7254 30.0982 69.6636 30.1496 69.5164 30.3444Z" fill="white"/>
<path d="M101.436 37.8672C101.246 38.0362 98.4817 41.7847 98.4817 41.8766C98.4817 41.9868 98.5102 42.0052 99.1704 42.3727C100.933 43.3503 103.403 44.8754 103.892 45.287C104.034 45.4083 104.006 45.5185 103.759 45.7721C103.298 46.2535 100.472 49.6896 100.462 49.7815C100.453 49.8697 100.534 49.9322 101.118 50.2997C102.481 51.1596 103.901 52.1188 105.312 53.1294C105.887 53.5447 105.987 53.5851 106.177 53.508C106.362 53.4308 107.986 51.744 108.599 50.9943C108.96 50.5459 109.34 49.9579 109.43 49.686C109.497 49.4875 109.497 49.4802 109.373 49.3368C109.008 48.9069 107.901 47.9256 106.875 47.1171C106.015 46.4446 105.407 46.0183 104.837 45.6912C104.609 45.5589 104.419 45.445 104.419 45.4413C104.419 45.434 104.557 45.2833 104.728 45.1069C105.246 44.574 106.186 43.4568 106.618 42.8688C107.089 42.2331 107.407 41.6487 107.445 41.3547L107.473 41.1489L106.994 40.7888C106.205 40.1971 103.621 38.6279 102.457 38.0289C101.792 37.6908 101.659 37.6687 101.436 37.8672Z" fill="white"/>
<path d="M121.695 41.7922C121.382 42.1634 120.541 43.49 120.199 44.1552C119.32 45.8531 118.859 47.5436 118.859 49.0724C118.859 50.2043 119.14 50.9797 119.695 51.3766C120.047 51.6265 120.275 51.689 120.831 51.689C121.263 51.689 121.329 51.6779 121.562 51.5824C122.056 51.3839 122.498 50.9393 122.864 50.2741C123.315 49.4546 123.78 47.8376 123.548 47.9074C123.514 47.9147 123.348 48.1058 123.187 48.33C122.469 49.3039 121.933 49.6898 121.367 49.6383C120.764 49.5832 120.394 49.2451 120.204 48.5762C120.099 48.2051 120.099 47.2238 120.208 46.7277C120.413 45.7832 120.869 44.4382 121.491 42.9241C122.099 41.4394 122.127 41.2777 121.695 41.7922Z" fill="white"/>
<path d="M87.6661 51.6521C85.8516 51.9094 82.9826 52.9163 79.6718 54.4525C78.9688 54.7795 76.5368 56.0107 76.2946 56.1613C76.1283 56.2642 75.4443 57.8445 75.5631 57.8445C75.5726 57.8445 75.9098 57.6828 76.3088 57.4843C79.4153 55.9408 82.9256 54.39 84.9776 53.6587C85.7851 53.372 86.9251 53.0266 87.3146 52.9531C87.5236 52.9126 87.5948 52.8759 87.7041 52.7583C87.8703 52.5819 88.1506 52.1299 88.2123 51.9388C88.3311 51.5786 88.3358 51.597 88.1648 51.6007C88.0793 51.6043 87.8561 51.6264 87.6661 51.6521Z" fill="white"/>
<path d="M85.0013 57.0765C83.7331 57.1904 82.2748 57.896 80.5221 59.241C78.0093 61.1741 76.8978 62.5779 76.6746 64.1251C76.6128 64.5367 76.6461 64.8491 76.7696 65.1321C77.1068 65.8928 78.1993 66.569 79.9948 67.1276C80.2656 67.2084 80.4841 67.2893 80.4841 67.304C80.4793 67.315 80.2513 67.4694 79.9711 67.6458C78.6933 68.4396 77.6246 69.2444 77.3776 69.5935C77.2683 69.7479 77.2161 69.939 77.0546 70.7291C76.8883 71.5376 76.8693 71.6956 76.9121 71.8169C76.9453 71.8941 76.9833 71.9565 77.0023 71.9565C77.0261 71.9565 77.1686 71.8867 77.3206 71.7985C78.7788 70.9827 89.3096 65.54 90.7773 64.8454C90.9436 64.7646 91.1668 64.6286 91.2666 64.5367C91.7653 64.0957 92.4161 62.6808 92.4826 61.9054C92.5158 61.4901 92.4778 61.4497 92.1121 61.5122C91.5468 61.6151 90.8581 61.9164 88.5591 63.0704C86.6068 64.0553 85.4526 64.4926 84.6546 64.5588C83.9611 64.6139 82.4791 64.1986 81.3438 63.629C80.4128 63.1586 80.1041 62.7176 80.3938 62.2582C80.7168 61.7364 82.2701 60.8948 83.2818 60.6927C83.7521 60.5971 84.3268 60.6302 84.6783 60.7662C85.0393 60.9058 85.4953 61.288 85.7423 61.6592C86.0606 62.1296 86.2221 62.2068 86.4311 61.9863C86.6448 61.7694 87.0771 61.1373 87.2956 60.7294C87.6566 60.0642 87.7611 59.7114 87.7611 59.1308C87.7658 58.3811 87.5853 57.9107 87.1578 57.5579C86.6876 57.1683 85.9181 56.9956 85.0013 57.0765Z" fill="white"/>
<path d="M35.5442 64.1288C35.055 64.1949 34.5847 64.3897 34.01 64.7719C33.611 65.0291 33.0505 65.5253 32.7275 65.8891C31.8867 66.8556 31.616 68.0316 32.072 68.7813C32.243 69.0606 32.718 69.4575 33.1835 69.7074C33.535 69.8948 34.3567 70.2256 34.8412 70.3763L35.1167 70.4571L35.0265 70.5563C34.5372 71.0819 33.1787 72.1917 32.091 72.9524C30.6422 73.9631 30.077 74.3122 25.2367 77.175C23.579 78.1562 22.078 79.0676 21.9022 79.1999C21.242 79.6997 21.5697 79.685 22.952 79.1595C24.0255 78.7516 26.809 77.6417 27.493 77.3514C28.4952 76.9251 30.0627 76.0578 31.293 75.2456C33.4067 73.8528 34.7747 72.6731 35.9195 71.2472C36.1142 71.012 36.29 70.8173 36.3137 70.8173C36.4467 70.8173 37.3967 71.2362 37.563 71.3685L37.7482 71.5155L37.6247 72.0043C37.5535 72.2689 37.3777 72.9341 37.2352 73.4816C36.7887 75.1721 36.6462 76.1791 36.7365 77.039C36.8742 78.3547 37.3777 79.2257 38.1805 79.527C38.3847 79.6042 38.4845 79.6189 38.893 79.6189C39.3157 79.6189 39.3965 79.6079 39.6387 79.516C40.4415 79.211 40.9782 78.2959 41.2157 76.8259C41.3202 76.1717 41.3582 75.7234 41.306 75.6536C41.2632 75.5984 41.2585 75.5984 41.192 75.6572C41.1492 75.694 41.059 75.8373 40.983 75.9806C40.7597 76.4069 40.4035 76.9251 40.1802 77.1419C39.9 77.4212 39.539 77.5609 39.2017 77.5315C38.3087 77.4506 37.81 76.6532 37.7435 75.2052C37.696 74.1248 37.924 72.9855 38.532 71.306C38.817 70.5196 38.8882 70.2146 38.855 69.9316C38.8075 69.4979 38.4085 69.1341 37.6342 68.8181C37.3967 68.7225 37.2067 68.6343 37.2067 68.6196C37.2067 68.6049 37.2495 68.4212 37.297 68.208C37.4585 67.5098 37.506 67.0247 37.4775 66.3044C37.449 65.562 37.3635 65.1835 37.1355 64.816C36.822 64.2978 36.2187 64.0369 35.5442 64.1288ZM35.4397 66.3301C35.8055 66.5322 36.0287 67.0614 36.0335 67.756C36.0382 68.039 36.0192 68.2227 35.986 68.2484C35.948 68.2778 35.7675 68.2374 35.3257 68.1014C34.5277 67.8552 34.0622 67.6531 33.7535 67.4142C33.535 67.2488 33.5017 67.2011 33.5017 67.0798C33.5017 66.8997 33.687 66.7196 34.086 66.5102C34.656 66.2125 35.1167 66.15 35.4397 66.3301Z" fill="white"/>
<path d="M47.3575 65.5289C47.196 65.6428 44.4742 69.3215 44.441 69.4722C44.4172 69.5861 44.4362 69.6008 45.1487 69.9977C46.1985 70.5857 47.614 71.442 48.8632 72.2468C49.533 72.6805 49.989 72.9487 50.0507 72.9487C50.198 72.9451 50.312 72.8569 50.635 72.5077C52.1502 70.854 53.1477 69.4538 53.1762 68.943C53.1857 68.7739 53.0717 68.66 52.4827 68.2521C51.623 67.6494 49.1862 66.1867 48.2885 65.731C47.7185 65.4407 47.5427 65.404 47.3575 65.5289Z" fill="white"/>
<path d="M27.6592 68.1822C26.9419 68.4983 25.4552 69.3141 22.6479 70.9421C21.7074 71.486 20.3394 72.2725 19.6079 72.6841C18.8764 73.0994 18.0642 73.5734 17.8029 73.7388C17.3089 74.0549 16.0217 74.9773 15.9694 75.0545C15.8982 75.15 15.7272 76.0394 15.7034 76.4032L15.6797 76.7891L16.0264 76.5281C16.6487 76.0651 17.3327 75.6131 18.2162 75.0765C18.6959 74.7862 20.1019 73.9189 21.3417 73.1508C24.4624 71.2214 25.8684 70.3762 27.1557 69.6779C27.4644 69.5089 27.7589 69.3178 27.8112 69.2553C28.0629 68.9393 28.2624 68.0609 28.0867 68.0352C28.0487 68.0279 27.8539 68.094 27.6592 68.1822Z" fill="white"/>
<path d="M74.8505 70.5562C74.632 70.6555 74.48 70.8172 74.1903 71.2324C73.207 72.6583 72.4043 74.4701 71.9293 76.348C71.5398 77.8842 71.7963 78.7405 72.7273 79.0161C72.9458 79.0786 73.093 79.0933 73.4968 79.0933C74.5323 79.0896 75.3778 78.7662 76.1425 78.0826C76.2803 77.9614 76.437 77.7923 76.4893 77.7078C76.6935 77.3807 76.893 76.5575 76.95 75.8188C77.026 74.7494 76.342 73.8821 74.5703 72.8127L74.4373 72.7282L74.613 72.3533C74.708 72.1438 74.936 71.6992 75.1165 71.3611C75.297 71.023 75.4443 70.7143 75.4443 70.6775C75.4443 70.5011 75.1118 70.4313 74.8505 70.5562ZM74.1095 74.8192C75.3493 75.3889 76.1568 75.9364 76.1568 76.2157C76.1568 76.326 75.8528 76.5722 75.4775 76.7707C75.0928 76.9691 74.2853 77.2484 73.9148 77.3072C73.0883 77.4432 72.6893 77.2484 72.6893 76.7119C72.6893 76.4032 72.808 75.896 72.9743 75.5212C73.1215 75.172 73.473 74.5657 73.5253 74.5657C73.5395 74.5657 73.8055 74.6796 74.1095 74.8192Z" fill="white"/>
<path d="M114.276 80.5083C113.976 80.8794 113.33 81.9158 113.031 82.5038C112.57 83.4078 112.304 84.1392 112.105 85.0212C112.015 85.4254 112 85.6386 111.996 86.4177C111.996 87.4026 112.024 87.579 112.276 87.9979C112.532 88.4316 112.979 88.6557 113.587 88.6594C113.896 88.6594 113.976 88.6447 114.2 88.5492C114.698 88.336 115.131 87.8142 115.454 87.0387C115.653 86.561 115.867 85.837 115.867 85.6459V85.5063L115.767 85.5761C115.71 85.6128 115.615 85.7268 115.549 85.8297C115.264 86.2596 114.836 86.6896 114.546 86.8403C114.09 87.0718 113.52 86.9432 113.254 86.5426C113.064 86.2596 112.998 85.9656 112.998 85.3703C112.998 84.4515 113.283 83.474 114.219 81.1808C114.518 80.4384 114.565 80.2988 114.499 80.2988C114.47 80.2988 114.371 80.3943 114.276 80.5083Z" fill="white"/>
<path d="M101.023 83.959C100.325 84.1317 99.712 84.6793 99.0993 85.6752C98.8665 86.0574 98.7763 86.2742 98.4865 87.1342C98.0448 88.4645 97.8025 89.273 97.6268 90.0264C97.4273 90.8717 97.2895 91.1914 97.2278 90.9452C97.2135 90.9011 97.128 90.5666 97.0378 90.2028C96.5865 88.4094 95.7695 86.9504 94.6628 85.9545C93.9598 85.3187 92.9148 84.8888 92.188 84.9365C92.0265 84.9476 91.9743 84.9733 91.7843 85.157C91.5325 85.3996 90.972 86.1089 90.6965 86.5352C90.3878 87.0056 90.44 87.182 91.01 87.6487C91.3995 87.9684 91.827 88.2367 92.188 88.3837C92.4065 88.4719 92.5158 88.4939 92.7675 88.4939C93.062 88.4939 93.081 88.4866 93.2568 88.3506C93.727 87.9831 94.0073 88.1485 94.6533 89.1738C95.2755 90.155 96.0783 91.7904 96.3728 92.6687C96.4583 92.9407 96.5485 93.3266 96.5723 93.5434C96.6055 93.8374 96.6388 93.9513 96.7005 94.0064C97.0093 94.271 97.6268 93.5287 98.0495 92.3894C98.23 91.9007 98.3298 91.5479 98.6243 90.3682C99.3368 87.5127 100.049 86.1787 100.866 86.1787C101.185 86.1787 101.47 86.3294 102.016 86.7777C102.377 87.0827 102.562 87.2077 102.638 87.2077C102.89 87.2077 103.127 86.9063 103.355 86.2926C103.579 85.6936 103.479 85.3298 102.923 84.7271C102.648 84.4294 102.192 84.0986 101.926 84.0068C101.631 83.9075 101.308 83.8892 101.023 83.959Z" fill="white"/>
<path d="M83.4386 86.0758C83.1298 86.447 82.4553 87.487 82.0753 88.1816C81.1586 89.8537 80.6836 91.4193 80.5933 93.051C80.5078 94.6202 80.9686 95.6419 81.8901 95.9212C82.2796 96.0388 82.8828 96.0424 83.2011 95.9285C83.4528 95.8366 83.8898 95.5316 84.0941 95.3038C84.4503 94.9032 84.8303 94.1682 85.0868 93.3854C85.3528 92.5512 85.4146 92.1763 85.2673 92.2131C85.2388 92.2204 85.0678 92.4262 84.8873 92.6651C84.1843 93.5986 83.7188 93.944 83.1583 93.9403C82.5978 93.9367 82.1703 93.6096 81.9756 93.0253C81.8473 92.6467 81.7998 92.0257 81.8568 91.5516C81.9851 90.5189 82.3983 89.229 83.3008 87.0203C83.6333 86.2008 83.7616 85.8112 83.6903 85.8112C83.6713 85.8112 83.5621 85.9288 83.4386 86.0758Z" fill="white"/>
<path d="M47.1819 88.3802C45.1346 90.1075 43.6811 92.2096 43.2774 94.025C43.0494 95.0687 43.3011 95.7118 44.0469 95.9691C44.2986 96.0573 44.3889 96.072 44.6834 96.0573C45.1346 96.0389 45.4101 95.9323 45.8281 95.6053C46.3031 95.2378 46.7306 94.7159 47.2151 93.9148C47.4384 93.5473 47.5049 93.3819 47.4289 93.3819C47.4004 93.3819 47.1154 93.584 46.7924 93.8339C45.9754 94.466 45.6049 94.5946 45.1109 94.4109C44.7071 94.2565 44.5361 93.9037 44.5836 93.3268C44.6691 92.3639 45.2486 91.3423 47.1059 88.8837C47.4099 88.4794 47.6569 88.1303 47.6569 88.1009C47.6569 88.0054 47.5619 88.0605 47.1819 88.3802Z" fill="white"/>
</svg>
